PathFileType	4	(X/Y/Z)	Patient4_TMGait_0pt6_01_left_15.trc.trc
DataRate	CameraRate	NumFrames	NumMarkers	Units	OrigDataRate	OrigDataStartFrame	OrigNumFrames
79.096045197740	79.096045197740	4	33	mm	79.096045197740	106	       141
Frame#	Time	Sacral			L.Shoulder			Chest			R.Shoulder			Neck			R.ASIS			L.ASIS			R.Thigh.Superior			R.Thigh.Lateral			R.Thigh.Inferior			R.Patella			L.Thigh.Superior			L.Thigh.Lateral			L.Thigh.Inferior			L.Patella			L.Shank.Superior			L.Shank.Lateral			L.Shank.Inferior			R.Shank.Superior			R.Shank.Lateral			R.Shank.Inferior			R.Heel			R.Midfoot.Superior			R.Midfoot.Lateral			R.Toe			L.Heel			L.Midfoot.Lateral			L.Midfoot.Superior			L.Toe			L.Elbow			L.Wrist			R.Elbow			R.Wrist			
		X1	Y1	Z1	X2	Y2	Z2	X3	Y3	Z3	X4	Y4	Z4	X5	Y5	Z5	X6	Y6	Z6	X7	Y7	Z7	X8	Y8	Z8	X9	Y9	Z9	X10	Y10	Z10	X11	Y11	Z11	X12	Y12	Z12	X13	Y13	Z13	X14	Y14	Z14	X15	Y15	Z15	X16	Y16	Z16	X17	Y17	Z17	X18	Y18	Z18	X19	Y19	Z19	X20	Y20	Z20	X21	Y21	Z21	X22	Y22	Z22	X23	Y23	Z23	X24	Y24	Z24	X25	Y25	Z25	X26	Y26	Z26	X27	Y27	Z27	X28	Y28	Z28	X29	Y29	Z29	X30	Y30	Z30	X31	Y31	Z31	X32	Y32	Z32	X33	Y33	Z33	

106	19.537500000000	630.588905983745	1010.595995102559	514.421822035520	765.226304393171	1436.616480462668	310.015039070636	894.737992399880	1375.116981805585	453.888724073575	836.140810301470	1447.777346469721	637.452685724743	771.239279953443	1498.882844127583	462.694705988173	872.537011971131	945.077786092503	603.594931907823	825.722953088813	969.912876368426	333.509522348134	898.774388651609	737.966106077823	566.568127711105	815.015033301251	633.507443879989	632.190982016239	877.261185861599	578.075452444344	543.321358921511	870.294926879906	490.279613636977	546.609699230279	924.674256169006	798.306696843334	370.916298390407	891.801849225706	668.310119411678	295.667121066693	997.293497017948	613.250380502304	359.929515073629	1019.628495476057	527.275400459731	352.497534526806	967.155875767469	452.858061994842	343.991767964046	840.203747973759	378.746598174230	296.323936737917	861.710866711232	250.000923067877	349.635894533980	841.178431286687	402.468635879972	554.797048614177	771.523722043426	299.627130381375	618.514493399273	805.481030217809	205.359040763066	550.798304019039	664.539773630084	42.160575231973	525.035981648740	837.383955954947	96.377376902985	555.023688424382	749.721139974366	36.396679072750	597.512771263770	957.806001941143	42.849517069114	580.878494225416	694.932520498344	143.636574037550	391.755382555705	756.982202989546	110.057903611422	309.608434182270	857.780953950716	140.736727736147	326.496440445396	955.837104543844	46.910089668832	297.070310274159	705.689793778115	1078.187747693180	218.896751605804	735.370838254446	819.987864766957	221.054392272327	941.501044008673	1123.906679528710	767.233047744146	1188.594945988663	1107.510977447570	706.186988534165	
107	19.550142857143	629.218797285295	1011.382430165345	515.196979208904	765.336708592760	1436.615709269902	310.511016285198	895.075064287804	1374.518317628508	453.890734063589	837.671243693131	1447.850426131786	637.514684846058	772.000231088935	1498.895620460367	463.109031848531	871.055981341587	944.636109430658	603.821567968116	823.981508374053	970.079871407286	333.697345669446	895.111780374137	737.041407215779	566.773010501748	810.494084159319	633.268821328047	632.631103348023	871.932130210297	577.244550968563	543.697566428131	864.139357635578	489.792927459556	547.024591945352	922.975357880536	799.304464035312	371.580500711461	890.284055143727	668.914246298514	296.428194081308	995.247192618662	614.224576984548	361.352939767775	1018.974921509473	530.300155087333	354.058128005939	971.072471821113	454.892643936210	345.119149460886	850.503694356847	371.900435106413	296.668894755983	881.204559236183	244.935066467716	350.300526296413	834.746975184429	402.133555286091	555.139051342802	764.731623255657	299.492951129672	618.765892601213	798.282901182370	205.155817112465	550.954975613231	656.886440672033	42.159765433869	525.064934366650	829.686248525985	96.319428093472	555.068181235929	742.059838046487	36.358900824514	597.491856511748	950.141379001972	42.765746566347	580.939567941041	722.954190395301	125.212350171536	391.542999001913	788.103132185209	97.680234537040	309.512843392789	885.923157038273	136.397166109421	327.158931895571	991.663413510376	51.398172947913	297.680987452079	698.431133781257	1079.253085196590	221.626483061700	718.686892927313	820.348205907872	226.340971937427	950.051233187914	1126.420755352860	765.206144228580	1196.111840203934	1125.699256477408	700.262931208256	
108	19.562785714286	627.955123131146	1012.016764775511	515.838031248253	765.563755248992	1436.546468831181	310.920642489945	895.459217652073	1373.789379340595	453.859607585343	839.140858797982	1447.732727495425	637.515466236177	772.787476868255	1498.798241324961	463.457396140885	869.617518487030	944.141030898738	603.914915442544	822.374989142362	970.047032407069	333.751459548223	891.527469522521	736.081210413185	567.023897291186	806.000525300885	632.975971218189	633.063597402583	866.669612528749	576.371050567177	544.120323040121	858.044578220850	489.282700879367	547.483176709929	920.913308570369	799.488163892822	371.965003163916	887.904210392161	668.830063192026	296.893161016013	992.146345980326	614.183913540055	362.570864404830	1017.138210486761	532.597235788942	355.483032802746	973.968202967531	456.583037908164	346.152389711483	860.718399195621	364.943345072367	296.678080738596	900.447610462831	240.506855103695	350.960987870786	828.356659430767	401.777895296306	555.497449741294	757.966845286963	299.344816373843	619.022560627898	791.095643377171	204.936350421324	551.117986976737	649.237289319724	42.174679168932	525.091104100659	821.989641012408	96.251286663251	555.113518527085	734.407823029916	36.313879492496	597.459656946152	942.481235075645	42.649088300831	581.003785765051	751.757646848023	108.155295789765	391.042258114802	819.779101374025	86.613628088416	309.480149519429	913.949863694459	133.074470094608	328.079266226990	1026.661207978735	57.237373048036	299.266598338968	691.328943136384	1080.469867275927	224.178602793973	703.105008865611	821.253203354199	231.372302360757	958.259987037463	1128.783592867784	762.915956942343	1202.350871263574	1143.102939663113	694.285767726407	
109	19.575428571429	626.832220981151	1012.484939307446	516.348111878489	765.884131972491	1436.410424855966	311.234220480151	895.870734676564	1372.954227436939	453.795189134282	840.506607225679	1447.438220795812	637.453240999855	773.573818994355	1498.598682847290	463.726972795009	868.258481734727	943.600835420606	603.886333659473	820.921926344856	969.821111467745	333.681068218568	888.046870576007	735.090453566354	567.307287690322	801.552025135530	632.639903944989	633.482631590220	861.487699639352	575.462739576754	544.588442908443	852.019354007679	488.748348702803	547.981173781054	918.509756489696	798.878563668287	372.095582146588	884.783609271457	668.110965617251	297.042079969828	988.149806967436	613.223023297396	363.577238452330	1014.292411714191	534.213804875337	356.782739715748	975.918907499796	457.980828384606	347.099912794309	870.751271950908	358.150499195583	296.410740520196	919.125233151699	236.937524746628	351.655246731611	822.011665571298	401.406565498615	555.871008396636	751.228842345200	299.191027071788	619.285505626123	783.923101575885	204.708808691369	551.289303322658	641.591759445184	42.204801767736	525.116080364704	814.300331982759	96.178316869628	555.165911978366	726.764326473673	36.264994799552	597.422287087576	934.827220809181	42.506085765983	581.071999027757	780.760963828330	92.963370900053	390.361653959878	851.410876614907	77.208891104942	309.591842423616	941.372456849509	130.967820853565	329.279937874638	1060.233022335649	64.413123827493	301.816540071700	684.433831646704	1081.813405111242	226.549142261253	688.655413227667	822.572323400766	236.080977127114	966.092584992484	1130.991247445830	760.390887830255	1207.411379099500	1159.553780843845	688.315958765455	
